<svg width="34" height="34" viewBox="0 0 34 34" fill="none" xmlns="http://www.w3.org/2000/svg">
<path fill-rule="evenodd" clip-rule="evenodd" d="M2.7735 31.2252C5.21683 33.6668 9.1435 33.6668 17.0002 33.6668C24.8568 33.6668 28.7852 33.6668 31.2252 31.2252C33.6668 28.7868 33.6668 24.8568 33.6668 17.0002C33.6668 9.1435 33.6668 5.21516 31.2252 2.7735C28.7868 0.333496 24.8568 0.333496 17.0002 0.333496C9.1435 0.333496 5.21516 0.333496 2.7735 2.7735C0.333496 5.21683 0.333496 9.1435 0.333496 17.0002C0.333496 24.8568 0.333496 28.7852 2.7735 31.2252ZM12.8335 11.5835C11.7622 11.5835 10.7149 11.9012 9.82416 12.4964C8.93339 13.0916 8.23912 13.9375 7.82915 14.9273C7.41917 15.9171 7.31191 17.0062 7.52091 18.0569C7.72991 19.1076 8.2458 20.0728 9.00333 20.8303C9.76087 21.5879 10.726 22.1037 11.7768 22.3127C12.8275 22.5218 13.9166 22.4145 14.9064 22.0045C15.8961 21.5945 16.7421 20.9003 17.3373 20.0095C17.9325 19.1187 18.2502 18.0715 18.2502 17.0002C18.2502 16.6686 18.3819 16.3507 18.6163 16.1163C18.8507 15.8819 19.1686 15.7502 19.5002 15.7502C19.8317 15.7502 20.1496 15.8819 20.384 16.1163C20.6185 16.3507 20.7502 16.6686 20.7502 17.0002C20.7502 18.5659 20.2859 20.0965 19.416 21.3984C18.5461 22.7003 17.3097 23.715 15.8631 24.3142C14.4165 24.9134 12.8247 25.0702 11.289 24.7647C9.75335 24.4592 8.34273 23.7053 7.23557 22.5981C6.1284 21.4909 5.37441 20.0803 5.06895 18.5446C4.76348 17.0089 4.92026 15.4172 5.51945 13.9706C6.11864 12.524 7.13334 11.2876 8.43523 10.4177C9.73712 9.5478 11.2677 9.0835 12.8335 9.0835C13.165 9.0835 13.483 9.21519 13.7174 9.44961C13.9518 9.68403 14.0835 10.002 14.0835 10.3335C14.0835 10.665 13.9518 10.983 13.7174 11.2174C13.483 11.4518 13.165 11.5835 12.8335 11.5835ZM26.5835 17.0002C26.5835 18.4368 26.0128 19.8145 24.997 20.8303C23.9812 21.8461 22.6034 22.4168 21.1668 22.4168C20.8353 22.4168 20.5174 22.5485 20.2829 22.7829C20.0485 23.0174 19.9168 23.3353 19.9168 23.6668C19.9168 23.9984 20.0485 24.3163 20.2829 24.5507C20.5174 24.7851 20.8353 24.9168 21.1668 24.9168C22.7326 24.9168 24.2632 24.4525 25.5651 23.5826C26.867 22.7127 27.8817 21.4763 28.4809 20.0297C29.0801 18.5832 29.2368 16.9914 28.9314 15.4557C28.6259 13.92 27.8719 12.5094 26.7648 11.4022C25.6576 10.2951 24.247 9.54108 22.7113 9.23561C21.1756 8.93015 19.5838 9.08692 18.1373 9.68612C16.6907 10.2853 15.4543 11.3 14.5844 12.6019C13.7145 13.9038 13.2502 15.4344 13.2502 17.0002C13.2502 17.3317 13.3819 17.6496 13.6163 17.884C13.8507 18.1185 14.1686 18.2502 14.5002 18.2502C14.8317 18.2502 15.1496 18.1185 15.384 17.884C15.6185 17.6496 15.7502 17.3317 15.7502 17.0002C15.7502 15.5636 16.3208 14.1858 17.3367 13.17C18.3525 12.1542 19.7302 11.5835 21.1668 11.5835C22.6034 11.5835 23.9812 12.1542 24.997 13.17C26.0128 14.1858 26.5835 15.5636 26.5835 17.0002Z" fill="#633CFF"/>
</svg>
